# xmcd CD database file
#
# Track frame offsets:
#	150
#	14170
#	31167
#	44295
#	55694
#	85159
#	108712
#	124143
#	139310
#	171747
#	189086
#	205334
#	220754
#	238598
#	258855
#
# Disc length: 3832 seconds
#
# Revision: 0
# Processed by: cddbd v1.5.2PL0 Copyright (c) Steve Scherf et al.
# Submitted via: CDex 1.51
#
DISCID=d80ef60f
DTITLE=Rehan Syed Ensemble - Fussissimo
DYEAR=2014
DGENRE=Jazz
TTITLE0=Rehan Syed Ensemble - Joseph Joseph
TTITLE1=Rehan Syed Ensemble - Tango Gatto
TTITLE2=Rehan Syed Ensemble - Fussissimo
TTITLE3=Rehan Syed Ensemble - Valse 07
TTITLE4=Rehan Syed Ensemble - Tarabesque
TTITLE5=Rehan Syed Ensemble - Sholah
TTITLE6=Rehan Syed Ensemble - Djangos Tiger
TTITLE7=Rehan Syed Ensemble - Mias Dance
TTITLE8=Rehan Syed Ensemble - Troublant Bolero
TTITLE9=Rehan Syed Ensemble - Noto Swing
TTITLE10=Rehan Syed Ensemble - Pariacci
TTITLE11=Rehan Syed Ensemble - I have to go
TTITLE12=Rehan Syed Ensemble - Waiting Room
TTITLE13=Rehan Syed Ensemble - Rythme Futur
TTITLE14=Rehan Syed Ensemble - Djane Du Ga
EXTD=YEAR: 2014
EXTT0=
EXTT1=
EXTT2=
EXTT3=
EXTT4=
EXTT5=
EXTT6=
EXTT7=
EXTT8=
EXTT9=
EXTT10=
EXTT11=
EXTT12=
EXTT13=
EXTT14=
PLAYORDER=
